<svg version="1.2" xmlns="http://www.w3.org/2000/svg" viewBox="0 0 210 297" width="500" height="707.1428571428572">
	<style>
		.s0 { mix-blend-mode: difference;fill: #ffffff;stroke: #000000;stroke-width: .4 } 
		.s1 { fill: #000000 } 
	</style>
	<g id="Layer 1">
		<g id="layer1">
			<path id="ellipse1-4" class="s0" d="m96.92 96.04c-7.21 0-13.04-6.91-13.04-15.46 0-8.54 5.83-15.45 13.04-15.45 7.21 0 13.04 6.91 13.04 15.45 0 8.55-5.83 15.46-13.04 15.46z"/>
			<path id="ellipse2-2" class="s0" d="m146.16 79.18c0 1.89-0.31 3.77-0.92 5.51-0.61 1.75-1.5 3.34-2.63 4.68-1.13 1.34-2.47 2.4-3.94 3.13-1.48 0.73-3.06 1.1-4.65 1.11-1.6 0-3.18-0.37-4.66-1.09-1.47-0.72-2.82-1.77-3.95-3.11-1.13-1.33-2.03-2.91-2.65-4.66-0.61-1.75-0.93-3.62-0.94-5.51-0.01-1.89 0.3-3.77 0.91-5.52 0.6-1.75 1.49-3.34 2.61-4.69 1.12-1.34 2.46-2.41 3.93-3.15 1.47-0.73 3.05-1.11 4.65-1.12 1.59-0.02 3.18 0.34 4.65 1.06 1.48 0.71 2.83 1.76 3.97 3.09 1.13 1.32 2.04 2.9 2.66 4.65 0.62 1.74 0.95 3.61 0.96 5.5"/>
		</g>
		<path id="path1-1" class="s1" d="m96.4 13.16c0.82-0.69-3.46-6.27-10.17-3.84-6.29 2.28-6.08 6.68-6.75 7.18 0 0-7.69-3.72-15.15 1.67-8.66 6.25-5.75 15.7-5.75 15.7-0.24 0.15-7.18-0.16-9.77 4.72-2.94 5.52-0.6 7.35 0.42 9.86 0.18 0.6-4.77-0.96-6.91 6.13-2.43 8.05 2.87 9.57 2.87 9.57 0.79 0.28-4.23 1.64-3.51 6.02 0.44 5.2 5.97 6.76 6.62 6.67 0.49-0.07-2.78 5.4 0.04 8.95 4.12 4.83 10.25 4.29 10.25 4.29 0.84 0.3-3.74 5.33 2.95 10.1 6.44 4.61 9.53-0.66 9.89-0.88 0.39-0.07 3.63 7.54 6.32 10.26 2.27 2.21 4.12 4.13 4.12 4.31 0 0.12-0.71 0.42-1.61 0.65-3.23 0.78-8.91 3.83-11.54 6.16-2.63 2.28-3.8 4.76-5.59 8.09-3.06 5.71-4.25 15.83-3.89 20.46 0.34 4.41 2.68 9.68 4.22 11.46 0.84 1.61 2.81 2.45 2.63 4.06-0.12 1.32-0.48 4.01-0.66 5.98-0.24 1.97-0.54 4.36-0.72 5.38-0.12 0.96-0.35 3.29-0.53 5.08-0.12 1.8-0.66 5.5-1.2 8.25-0.48 2.75-1.35 7.88-1.55 9.69-0.41 3.56-1.55 8.31-1.92 12.26-1.31 5.81-2.24 11.82-3.77 17.58-1.56 8.3-3.4 16.57-6.15 24.57-3.69 10.64-7.63 23.34-7.06 27.51 0.36 2.87 0.72 3.58 2.87 5.44 2.57 2.21 6.82 3.82 14.65 5.68 5.32 1.19 19.25 1.55 23.14 0.54 2.3-0.31 3.65-0.84 5.44-2.28 4.19-3.52 3.95-8.31-0.66-13.15-1.25-1.26-3.46-2.93-4.96-3.71-3.29-1.73-6.52-4.6-6.52-5.92 7.7-17.91 9.57-38.68 17.66-56.34 0.89-1.08 2.35-1.91 3.75-1.89 1.63 0.03 3.8 2.07 4.3 2.33 0.88 0.45 4.37 6.81 6.28 11.6 1.62 3.82 5.08 14.77 5.2 16.26 2.9 7.78 2.98 16.16 4.91 24.1 0.12 0.47 0.42 2.75 0.59 5.08 0.9 10.7 1.8 12.79 6.4 15.13 4.01 1.97 15.07 3.76 23.56 3.76 10.52 0 17.16-1.67 18.78-4.72 1.01-1.85 0.89-5.68-0.12-7.71-4.68-5.58-9.65-8.04-15.67-10.71-4.71-2.32-6.36-10.21-7.31-15.21-0.89-4.93-1.96-10.07-3.21-14.92-1.74-7-2.99-11.3-6.52-22.42-3.17-10.29-3.29-10.71-2.39-10.17 1.31 0.78 5.44-1.02 7.95-3.53 1.67-1.61 3.41-2.75 4.72-2.99 3.11-0.59 4.91-2.75 4.91-6.21 0.06-2.58 0.24-2.93 2.15-3.95 3.29-1.73 8.67-6.1 11.06-8.85 1.26-1.44 3.05-4.31 4.07-6.34 1.61-3.53 2.31-3.99 2.01-8.18-0.36-5.38-2.19-8.38-6.68-14.36-5.62-7.53-13.57-14.65-21.52-19.25-5.56-3.23-13.87-7.12-16.39-7.66-1.91-0.42-1.85-0.47 4.19-3.17 5.68-2.57 6.7-3.28 12.08-8.55 4.96-4.96 6.16-6.51 8.13-10.76 3.59-7.77 4.42-11.6 4.48-20.93l0.06-8.13c0.2-0.07 8.43 4.43 10.52-7.05 1.83-10.08-6.32-10.71-6.46-11.04 0 0 10.76-4.64 5.7-14.04-5.36-9.97-12.39-4.56-12.64-4.46 0 0 4.41-6.87-2.28-12.29-4.47-3.63-12.95 0.53-13.34 0.53-0.16-0.22 2.75-6.64-5.91-10.49-7.88-4.39-13.04 3.88-12.79 4.11-0.03-0.39-1.66-6.66-9.71-7.05-7.04-0.69-10.93 6.24-10.61 5.98zm43.35 53.95c1.8 1.08 4.91 5.56 5.38 7.65 0.54 2.81 0.18 8.31-0.71 10.47-1.2 2.75-4.07 5.98-6.52 7.29-3.53 1.79-9.93 0.12-12.2-3.23-4.54-6.69-3.94-14.77 1.38-20.51 1.55-1.67 3.41-3.05 4.3-3.17 2.63-0.41 6.28 0.24 8.37 1.5zm-39.16-0.36c4.72 1.61 7.65 5.38 8.85 11.42 0.54 2.75-0.9 9.33-2.51 11.18-4.43 5.26-7.66 6.64-13.1 5.56-0.83-0.12-1.67-0.3-1.91-0.36-0.24 0-1.38-0.89-2.57-1.91-6.22-5.44-6.52-16.14-0.72-22.6 1.38-1.5 6.64-4.25 8.25-4.25 0.48 0 2.21 0.42 3.71 0.96zm32.86 78.37c2.45 1.97 5.29 4.28 6.54 5.78 1.2 1.43 3.17 2.97 3.89 3.8 2.69 3.23 2.87 4.07 1.49 6.88-0.71 1.44-1.79 3.17-2.45 3.89-1.07 1.31-1.19 1.31-3.76 0.42-4.01-1.44-11.25 0-15.91 3.17-0.9 0.59-2.15 1.07-2.81 1.13 1.21 0.26 5.96-2.09 8.89-3.05 1.57 0.67 0.27-7.8 0.27-7.8-0.16-1.9-0.68-8.06-0.84-11.41-0.15-3.26-0.49-5.38 0.05-5.38 0.18 0 2.18 0.53 4.64 2.57z"/>
	</g>
</svg>