<svg version="1.2" xmlns="http://www.w3.org/2000/svg" viewBox="0 0 210 297" width="500" height="707.1428571428572">
	<style>
		.s0 { fill: #000000 } 
		.s1 { mix-blend-mode: difference;fill: #ffffff;stroke: #000000;stroke-width: .4 } 
	</style>
	<g id="Layer 1">
		<g id="layer1">
		</g>
		<g id="g2">
			<path id="path1" class="s0" d="m103.08 19.52c0 0-5.15-5.35-11.62-4.33-10.37 1.14-10.92 9-11.23 9.07 0.08-0.18-8.88-2.42-14.38 1.97-7.05 4.31-4.27 11.88-4.44 11.98-0.08 0.21-5.77-1.8-9.71 3.24-4.14 4.96-0.07 11.69-0.05 11.7-0.14 0.23-5.44 3.95-5.4 9.52-0.44 5.42 6.37 9.77 6.56 9.95 0.06-0.04-4.88 4.57-3.09 10.74 1.87 6.16 7.4 6.91 7.4 6.91 0 0-1.65 4.66 1.94 8.1 5.31 4.71 8.9 0.4 8.96 0.58-0.03 0.21 0.32 2.86 1.47 5.11 3.06 7.53 5.78 10.03 10.53 13.45 4.83 4.01 9.5 4.53 9.13 5.1-0.38 0.59-2.5 1.24-6.97 2.78-6.97 2.43-13.62 7.22-18.79 13.43-6.43 9.84-11.01 20.87-15.81 31.49-0.81 1.5-2.76 6.07-6.51 17.27-1.18 3.42-2.61 7.34-3.17 8.71-0.56 1.37-1.62 3.73-2.31 5.29-0.62 1.55-2.77 6.05-3.08 6.73-1.99 4.6-0.46 10.37-0.15 11.74 0.5 2.11 1.74 4.29 3.92 6.59 5.29 5.79 15.8 4.42 18.66-2.36 0.37-0.81 1.66-3.43 2.26-3.59 0.33-0.43 4.14 0.42 5.57-2.32 1.81-3.61 1.99-7.15 0.62-12.5-1.11-4.17-0.87-5.41 2.43-15.49 1.99-6.15 7.78-22.06 8.1-22.43 0.04 0.88-2.28 15.81-3.25 23.46-0.5 5.16-3.55 27.97-4.96 37.51-1.41 9.54-1.43 13.2-3.24 19.74-1.8 6.54-3.53 13.82-8.65 19.15-1.99 1.68-4.73 4.67-5.97 6.53-0.18 0.27-7.48 10.08 4.6 16.3 3.43 1.78 30.93 1.84 39.57-1.83 6.61-2.15 3.64-11.8 4.32-17.65 0.31-2.86 1.88-10.88 2.66-16.54 0.77-5.66 1.07-7.89 1.96-17.41 0.32-2.86 3.44-19.63 3.25-19.63 0.12-0.18 1.07 0.06 1.07 0.06 1.21 3.08 4.93 17.86 6.12 20.22 1.39 5.84 2.54 10.22 3.31 16.14 0.9 7.88 1.97 12.39 1.54 17.01-0.63 6.86 1.16 14.7 6.11 17.45 11.37 3.84 39.31 4.73 42.01 1.86 10.03-5.63 2.86-14.44-0.82-17.3-1.99-2.31-6.37-5.95-7.55-8.32-1.37-2.88-4.2-9.53-6-16.06-1.32-6.82-3.82-13.9-5.45-22.83-1.96-11.28-4.08-21.58-6.34-32.32-1.8-8.46-4.04-24.63-3.48-25.19 0.25-0.24 6.78 13.62 8.65 18.35 0.56 1.56 1.92 4.98 2.98 7.65 2.12 5.41 2.83 6.31 1.4 10.29-0.49 1.43-1.34 6.88-1.34 8.93 0 5.78 6.2 7.63 7.79 7.58 1.48 0.6 3.12 4.15 3.87 5.45 2.3 4.05 6.75 4.69 11.73 2.64 2.67-1.12 6.9-5.22 7.83-7.65 2.62-6.9 1.81-12.75-3.17-22.76-3.42-6.97-4.29-9.08-7.65-18.16-5.41-14.99-10.38-25.63-16.29-34.64-2.55-3.98-10.76-12.75-13.75-14.68-0.99-0.68-3.11-2.05-4.66-3.05-1.56-1.06-5.16-2.67-8.09-3.61-3.11-0.99-4.79-1.8-4.04-1.92 2.61-0.5 10.14-4.54 13.62-7.4 4.35-3.49 7.03-6.62 8.9-11.78 1.12-2.99 1.75-5.01 1.75-5.01 0.24-0.07 6.57 1.81 9.09-2.79 2.28-4.16-0.44-8.69-0.44-8.69-0.15-0.03 5.71 2.25 8.47-4.62 2.89-7.21-3.25-10.3-3.39-10.08-0.25-0.11 7.38-2.38 5.99-11.01-1.73-8.45-8.53-8.07-8.3-7.94 0.35 0.2 5.3-6.01 1.59-11.75-2.92-6.29-11.23-5.77-11.37-5.9 0 0 0.95-6.83-6.22-11.1-5.47-3.01-12.08-1.77-12.5-1.81-0.22-0.26-2.92-7.51-11.31-8.4-7.59-1.03-12.99 5.03-12.79 5.08z"/>
			<path id="ellipse1" class="s1" d="m90.09 97.94c-6.73 0-12.17-6.44-12.17-14.42 0-7.98 5.44-14.43 12.17-14.43 6.73 0 12.17 6.45 12.17 14.43 0 7.98-5.44 14.42-12.17 14.42z"/>
			<path id="ellipse2" class="s1" d="m135.2 83.08c0 1.89-0.31 3.77-0.92 5.52-0.61 1.74-1.51 3.33-2.64 4.67-1.12 1.34-2.46 2.4-3.94 3.13-1.47 0.73-3.05 1.1-4.65 1.11-1.59 0-3.17-0.37-4.65-1.09-1.48-0.72-2.82-1.77-3.95-3.11-1.13-1.33-2.03-2.91-2.65-4.66-0.62-1.74-0.94-3.62-0.94-5.51-0.01-1.89 0.3-3.77 0.9-5.52 0.61-1.75 1.49-3.34 2.62-4.69 1.12-1.34 2.46-2.41 3.93-3.14 1.47-0.74 3.05-1.12 4.64-1.13 1.6-0.02 3.18 0.34 4.66 1.06 1.48 0.71 2.83 1.76 3.96 3.09 1.14 1.33 2.05 2.91 2.67 4.65 0.62 1.74 0.95 3.61 0.96 5.5"/>
		</g>
	</g>
</svg>